<svg width="189" height="169" viewBox="0 0 189 169" fill="none" xmlns="http://www.w3.org/2000/svg">
<path d="M60.5156 46.75H69.5625V95.0781C69.5625 101.609 67.5938 106.719 63.6562 110.406C59.75 114.094 54.5312 115.938 48 115.938C41.2188 115.938 35.9375 114.203 32.1562 110.734C28.375 107.266 26.4844 102.406 26.4844 96.1562H35.4844C35.4844 100.062 36.5469 103.109 38.6719 105.297C40.8281 107.484 43.9375 108.578 48 108.578C51.7188 108.578 54.7188 107.406 57 105.062C59.3125 102.719 60.4844 99.4375 60.5156 95.2188V46.75ZM132.047 54.1562H110.109V115H101.156V54.1562H79.2656V46.75H132.047V54.1562Z" fill="black"/>
<path d="M60.5156 46.75V44.75H58.5156V46.75H60.5156ZM69.5625 46.75H71.5625V44.75H69.5625V46.75ZM63.6562 110.406L62.2891 108.946L62.2833 108.952L63.6562 110.406ZM26.4844 96.1562V94.1562H24.4844V96.1562H26.4844ZM35.4844 96.1562H37.4844V94.1562H35.4844V96.1562ZM38.6719 105.297L37.2373 106.69L37.2424 106.696L37.2475 106.701L38.6719 105.297ZM57 105.062L55.5763 103.658L55.5668 103.668L57 105.062ZM60.5156 95.2188L62.5156 95.2336L62.5156 95.2262V95.2188H60.5156ZM60.5156 48.75H69.5625V44.75H60.5156V48.75ZM67.5625 46.75V95.0781H71.5625V46.75H67.5625ZM67.5625 95.0781C67.5625 101.182 65.7395 105.715 62.2891 108.946L65.0234 111.866C69.448 107.722 71.5625 102.037 71.5625 95.0781H67.5625ZM62.2833 108.952C58.8251 112.216 54.1372 113.938 48 113.938V117.938C54.9253 117.938 60.6749 115.971 65.0292 111.861L62.2833 108.952ZM48 113.938C41.5547 113.938 36.8149 112.294 33.5083 109.261L30.8042 112.208C35.0601 116.112 40.8828 117.938 48 117.938V113.938ZM33.5083 109.261C30.2281 106.251 28.4844 101.978 28.4844 96.1562H24.4844C24.4844 102.835 26.5219 108.28 30.8042 112.208L33.5083 109.261ZM26.4844 98.1562H35.4844V94.1562H26.4844V98.1562ZM33.4844 96.1562C33.4844 100.43 34.6558 104.033 37.2373 106.69L40.1064 103.903C38.4379 102.186 37.4844 99.6945 37.4844 96.1562H33.4844ZM37.2475 106.701C39.8892 109.381 43.5814 110.578 48 110.578V106.578C44.2936 106.578 41.767 105.588 40.0962 103.893L37.2475 106.701ZM48 110.578C52.1777 110.578 55.7226 109.242 58.4332 106.457L55.5668 103.668C53.7149 105.57 51.2598 106.578 48 106.578V110.578ZM58.4237 106.467C61.1967 103.657 62.4816 99.8202 62.5156 95.2336L58.5157 95.2039C58.4872 99.0548 57.4283 101.781 55.5763 103.658L58.4237 106.467ZM62.5156 95.2188V46.75H58.5156V95.2188H62.5156ZM132.047 54.1562V56.1562H134.047V54.1562H132.047ZM110.109 54.1562V52.1562H108.109V54.1562H110.109ZM110.109 115V117H112.109V115H110.109ZM101.156 115H99.1562V117H101.156V115ZM101.156 54.1562H103.156V52.1562H101.156V54.1562ZM79.2656 54.1562H77.2656V56.1562H79.2656V54.1562ZM79.2656 46.75V44.75H77.2656V46.75H79.2656ZM132.047 46.75H134.047V44.75H132.047V46.75ZM132.047 52.1562H110.109V56.1562H132.047V52.1562ZM108.109 54.1562V115H112.109V54.1562H108.109ZM110.109 113H101.156V117H110.109V113ZM103.156 115V54.1562H99.1562V115H103.156ZM101.156 52.1562H79.2656V56.1562H101.156V52.1562ZM81.2656 54.1562V46.75H77.2656V54.1562H81.2656ZM79.2656 48.75H132.047V44.75H79.2656V48.75ZM130.047 46.75V54.1562H134.047V46.75H130.047Z" fill="black"/>
<circle cx="80" cy="80" r="76.5" stroke="black" stroke-width="7"/>
</svg>
